<svg width="112" height="87" viewBox="0 0 112 87" fill="none" xmlns="http://www.w3.org/2000/svg">
<path d="M112 58.7727C112 66.1988 109.05 73.3207 103.799 78.5717C98.548 83.8227 91.4261 86.7727 84 86.7727C76.5739 86.7727 69.452 83.8227 64.201 78.5717C58.95 73.3207 56 66.1988 56 58.7727C56 51.3466 58.95 44.2247 64.201 38.9737C69.452 33.7227 76.5739 30.7727 84 30.7727C91.4261 30.7727 98.548 33.7227 103.799 38.9737C109.05 44.2247 112 51.3466 112 58.7727ZM86.1538 41.5419C86.1538 40.9707 85.9269 40.4229 85.523 40.0189C85.1191 39.615 84.5712 39.3881 84 39.3881C83.4288 39.3881 82.8809 39.615 82.477 40.0189C82.0731 40.4229 81.8462 40.9707 81.8462 41.5419V56.6189H66.7692C66.198 56.6189 65.6502 56.8458 65.2462 57.2497C64.8423 57.6536 64.6154 58.2015 64.6154 58.7727C64.6154 59.3439 64.8423 59.8918 65.2462 60.2957C65.6502 60.6996 66.198 60.9266 66.7692 60.9266H81.8462V76.0035C81.8462 76.5747 82.0731 77.1226 82.477 77.5265C82.8809 77.9304 83.4288 78.1573 84 78.1573C84.5712 78.1573 85.1191 77.9304 85.523 77.5265C85.9269 77.1226 86.1538 76.5747 86.1538 76.0035V60.9266H101.231C101.802 60.9266 102.35 60.6996 102.754 60.2957C103.158 59.8918 103.385 59.3439 103.385 58.7727C103.385 58.2015 103.158 57.6536 102.754 57.2497C102.35 56.8458 101.802 56.6189 101.231 56.6189H86.1538V41.5419Z" fill="#BC9A2F"/>
<mask id="mask0_107_2499" style="mask-type:alpha" maskUnits="userSpaceOnUse" x="0" y="0" width="102" height="82">
<path d="M91.6364 10.1818H50.9091L40.7273 0H10.1818C4.53091 0 0.050909 4.53091 0.050909 10.1818L0 71.2727C0 76.9236 4.53091 81.4545 10.1818 81.4545H91.6364C97.2873 81.4545 101.818 76.9236 101.818 71.2727V20.3636C101.818 14.7127 97.2873 10.1818 91.6364 10.1818ZM91.6364 71.2727H10.1818V10.1818H36.5018L46.6836 20.3636H91.6364V71.2727Z" fill="#F24E1E"/>
</mask>
<g mask="url(#mask0_107_2499)">
<path d="M50.9087 58.5455C50.9087 76.8727 68.7269 91.6364 83.9996 91.6364H-7.63672V-7.63635H117.091V58.5455C117.091 38.1818 101.818 25.4546 83.9996 25.4546C65.6724 25.4546 50.9087 40.7273 50.9087 58.5455Z" fill="#333333"/>
</g>
</svg>
