<svg width="140" height="81" viewBox="0 0 140 81" fill="none" xmlns="http://www.w3.org/2000/svg">
<path d="M33.6315 0C36.0642 0 38.3972 0.983405 40.1173 2.73388C41.8374 4.48435 42.8038 6.8585 42.8038 9.33404V21.7794C42.8035 23.7094 42.2153 25.5919 41.1203 27.1676C40.0252 28.7434 38.477 29.935 36.689 30.5783V37.3361C36.6887 37.9273 36.523 38.5063 36.2112 39.0051C35.8993 39.5039 35.4543 39.9019 34.9282 40.1527C34.4021 40.4034 33.8166 40.4964 33.2405 40.4208C32.6643 40.3451 32.1212 40.104 31.6748 39.7257L21.5242 31.1135H9.17231C6.73969 31.1135 4.4067 30.1301 2.68658 28.3796C0.966456 26.6291 0.000102043 24.255 0.000102043 21.7794V9.33404C0.000102043 6.8585 0.966456 4.48435 2.68658 2.73388C4.4067 0.983405 6.73969 0 9.17231 0H33.6315ZM36.689 9.33404C36.689 8.50886 36.3668 7.71747 35.7935 7.13398C35.2201 6.55049 34.4424 6.22269 33.6315 6.22269H9.17231C8.36144 6.22269 7.58378 6.55049 7.0104 7.13398C6.43703 7.71747 6.11491 8.50886 6.11491 9.33404V21.7794C6.11491 22.6046 6.43703 23.396 7.0104 23.9795C7.58378 24.563 8.36144 24.8908 9.17231 24.8908H22.6249C23.34 24.8911 24.0324 25.1465 24.5816 25.6126L30.5741 30.6903V28.0021C30.5741 27.1769 30.8963 26.3855 31.4696 25.8021C32.043 25.2186 32.8207 24.8908 33.6315 24.8908C34.4424 24.8908 35.2201 24.563 35.7935 23.9795C36.3668 23.396 36.689 22.6046 36.689 21.7794V9.33404ZM73.3778 31.1135C73.3778 27.8127 72.0893 24.6472 69.7958 22.3132C67.5023 19.9793 64.3917 18.6681 61.1482 18.6681C57.9047 18.6681 54.794 19.9793 52.5005 22.3132C50.207 24.6472 48.9186 27.8127 48.9186 31.1135C48.9186 34.4142 50.207 37.5797 52.5005 39.9137C54.794 42.2476 57.9047 43.5588 61.1482 43.5588C64.3917 43.5588 67.5023 42.2476 69.7958 39.9137C72.0893 37.5797 73.3778 34.4142 73.3778 31.1135ZM61.1482 24.8908C62.7699 24.8908 64.3253 25.5464 65.472 26.7134C66.6188 27.8803 67.263 29.4631 67.263 31.1135C67.263 32.7638 66.6188 34.3466 65.472 35.5136C64.3253 36.6805 62.7699 37.3361 61.1482 37.3361C59.5264 37.3361 57.9711 36.6805 56.8244 35.5136C55.6776 34.3466 55.0334 32.7638 55.0334 31.1135C55.0334 29.4631 55.6776 27.8803 56.8244 26.7134C57.9711 25.5464 59.5264 24.8908 61.1482 24.8908ZM76.4352 49.7815H45.8612C43.4285 49.7815 41.0956 50.7649 39.3754 52.5154C37.6553 54.2659 36.689 56.64 36.689 59.1156C36.689 66.0601 39.4956 71.6232 44.1001 75.3879C48.6312 79.0904 54.7093 80.895 61.1482 80.895C67.5871 80.895 73.6652 79.0904 78.1963 75.3879C82.7946 71.6232 85.6074 66.0601 85.6074 59.1156C85.6074 56.64 84.6411 54.2659 82.9209 52.5154C81.2008 50.7649 78.8678 49.7815 76.4352 49.7815V49.7815ZM45.8612 56.0042H76.4352C77.2461 56.0042 78.0237 56.332 78.5971 56.9155C79.1705 57.499 79.4926 58.2904 79.4926 59.1156C79.4926 64.1995 77.5053 67.9705 74.3684 70.5342C71.152 73.1602 66.5292 74.6723 61.1482 74.6723C55.7672 74.6723 51.1444 73.1602 47.928 70.5342C44.7911 67.9705 42.8038 64.1995 42.8038 59.1156C42.8038 58.2904 43.1259 57.499 43.6993 56.9155C44.2726 56.332 45.0503 56.0042 45.8612 56.0042Z" fill="#333333"/>
<mask id="mask0_107_2489" style="mask-type:alpha" maskUnits="userSpaceOnUse" x="75" y="19" width="65" height="60">
<path d="M116.152 19.3706C114.893 19.3706 113.685 19.8708 112.795 20.761C111.905 21.6513 111.405 22.8587 111.405 24.1178V33.6121C111.405 34.8711 111.905 36.0786 112.795 36.9689C113.685 37.8591 114.893 38.3593 116.152 38.3593V45.48L124.697 38.3593H135.14C136.399 38.3593 137.607 37.8591 138.497 36.9689C139.387 36.0786 139.888 34.8711 139.888 33.6121V24.1178C139.888 22.8587 139.387 21.6513 138.497 20.761C137.607 19.8708 136.399 19.3706 135.14 19.3706H116.152ZM94.7895 31.2385C92.2714 31.2385 89.8565 32.2388 88.0759 34.0194C86.2954 35.7999 85.2951 38.2148 85.2951 40.7329C85.2951 43.2509 86.2954 45.6658 88.0759 47.4464C89.8565 49.2269 92.2714 50.2272 94.7895 50.2272C97.3075 50.2272 99.7224 49.2269 101.503 47.4464C103.284 45.6658 104.284 43.2509 104.284 40.7329C104.284 38.2148 103.284 35.7999 101.503 34.0194C99.7224 32.2388 97.3075 31.2385 94.7895 31.2385V31.2385ZM106.657 54.9744H82.9215C81.033 54.9744 79.2218 55.7246 77.8864 57.06C76.551 58.3954 75.8008 60.2066 75.8008 62.0951C75.8008 67.393 77.9797 71.6369 81.5543 74.509C85.072 77.3335 89.7907 78.7102 94.7895 78.7102C99.7882 78.7102 104.507 77.3335 108.025 74.509C111.594 71.6369 113.778 67.393 113.778 62.0951C113.778 60.2066 113.028 58.3954 111.693 57.06C110.357 55.7246 108.546 54.9744 106.657 54.9744V54.9744Z" fill="#F24E1E"/>
</mask>
<g mask="url(#mask0_107_2489)">
<path d="M87.6711 64.4687C89.5699 56.8732 85.2975 51.8095 82.9239 50.2272L80.5468 43.1064V31.2385L90.0411 14.6234L118.524 9.87622H151.754L156.501 24.1177L137.513 50.2272L125.645 73.963L113.781 83.4573C99.539 83.4573 72.0054 82.9826 75.8032 81.0837C80.5503 78.7102 85.2975 73.963 87.6711 64.4687Z" fill="#BC9A2F"/>
</g>
</svg>
