<svg width="143" height="82" viewBox="0 0 143 82" fill="none" xmlns="http://www.w3.org/2000/svg">
<path d="M83 39.183C82.9999 38.8446 83.0682 38.5096 83.2009 38.1978C83.3336 37.8859 83.5279 37.6035 83.7725 37.3672C84.0172 37.131 84.3071 36.9455 84.6252 36.8219C84.9433 36.6983 85.2832 36.6391 85.6248 36.6476H122.887C123.558 36.6476 124.201 36.9113 124.675 37.3808C125.149 37.8503 125.415 38.4871 125.415 39.1511V43.1216C125.415 43.7856 125.149 44.4224 124.675 44.8919C124.201 45.3614 123.558 45.6251 122.887 45.6251H85.6248C85.2848 45.638 84.9456 45.5828 84.6276 45.4627C84.3096 45.3427 84.0194 45.1603 83.7743 44.9266C83.5292 44.6928 83.3343 44.4124 83.2013 44.1023C83.0682 43.7922 82.9998 43.4586 83 43.1216V43.1216V39.183ZM113 76.4646C113 77.1343 112.732 77.7768 112.256 78.2518C111.779 78.7268 111.132 78.9958 110.456 79H85.6248C84.9457 79 84.2945 78.7329 83.8143 78.2574C83.3342 77.7819 83.0644 77.137 83.0644 76.4646V72.4941C83.0771 71.8299 83.3524 71.1973 83.8312 70.7321C84.31 70.2669 84.954 70.0064 85.6248 70.0065H110.456C111.125 70.0064 111.767 70.2675 112.244 70.7331C112.72 71.1987 112.992 71.8314 113 72.4941V76.4646ZM137.815 59.817C137.815 60.4852 137.547 61.1261 137.07 61.5986C136.592 62.071 135.945 62.3365 135.271 62.3365H85.6248C84.9498 62.3324 84.3034 62.0661 83.8246 61.5949C83.3458 61.1238 83.0728 60.4854 83.0644 59.817V55.8784C83.0514 55.2171 83.3033 54.5776 83.7649 54.0995C84.2265 53.6215 84.8604 53.3438 85.5282 53.327H135.335C135.674 53.3227 136.01 53.3858 136.324 53.5127C136.637 53.6396 136.922 53.8276 137.161 54.0656C137.4 54.3036 137.588 54.5868 137.714 54.8982C137.84 55.2096 137.902 55.5429 137.895 55.8784V55.8784L137.815 59.817ZM142.936 26.4741C142.94 26.8082 142.877 27.1398 142.75 27.4494C142.622 27.7589 142.434 28.0401 142.195 28.2764C141.957 28.5127 141.673 28.6993 141.36 28.8252C141.048 28.9511 140.713 29.0137 140.375 29.0095H85.6248C85.2832 29.018 84.9433 28.9587 84.6252 28.8351C84.3071 28.7115 84.0172 28.5261 83.7725 28.2898C83.5279 28.0535 83.3336 27.7711 83.2009 27.4593C83.0682 27.1474 82.9999 26.8124 83 26.4741V26.4741V22.5035C83 21.8395 83.2664 21.2028 83.7405 20.7333C84.2146 20.2638 84.8577 20 85.5282 20H140.472C141.142 20 141.785 20.2638 142.26 20.7333C142.734 21.2028 143 21.8395 143 22.5035V22.5035L142.936 26.4741Z" fill="#BC9A2F"/>
<mask id="mask0_107_2504" style="mask-type:alpha" maskUnits="userSpaceOnUse" x="0" y="0" width="102" height="82">
<path d="M91.6364 10.1818H50.9091L40.7273 0H10.1818C4.53091 0 0.050909 4.53091 0.050909 10.1818L0 71.2727C0 76.9236 4.53091 81.4545 10.1818 81.4545H91.6364C97.2873 81.4545 101.818 76.9236 101.818 71.2727V20.3636C101.818 14.7127 97.2873 10.1818 91.6364 10.1818ZM91.6364 71.2727H10.1818V10.1818H36.5018L46.6836 20.3636H91.6364V71.2727Z" fill="#F24E1E"/>
</mask>
<g mask="url(#mask0_107_2504)">
<path d="M86 19H105V-9.5H-4.5V88.5H104V80H85.5C82.7 80 82 77.6667 82 76.5V73C82 69 84.6667 69 86 69H104V63.5H86C82.8 63.5 82 61.1667 82 60V56.5C82 53.3 84.3333 52.5 85.5 52.5H104V46.5H85.5C82.7 46.5 82 44.1667 82 43V39C82 36.2 84.6667 35.5 86 35.5H104V30H86C82.8 30 82 28 82 27V22C82 19.6 84.6667 19 86 19Z" fill="#333333"/>
</g>
</svg>
