<svg width="79" height="83" viewBox="0 0 79 83" fill="none" xmlns="http://www.w3.org/2000/svg">
<path d="M79 60C79 66.1 76.5768 71.9501 72.2635 76.2635C67.9501 80.5768 62.1 83 56 83C49.9 83 44.0499 80.5768 39.7365 76.2635C35.4232 71.9501 33 66.1 33 60C33 53.9 35.4232 48.0499 39.7365 43.7365C44.0499 39.4232 49.9 37 56 37C62.1 37 67.9501 39.4232 72.2635 43.7365C76.5768 48.0499 79 53.9 79 60ZM57.7692 45.8462C57.7692 45.3769 57.5828 44.9269 57.251 44.5951C56.9192 44.2633 56.4692 44.0769 56 44.0769C55.5308 44.0769 55.0808 44.2633 54.749 44.5951C54.4172 44.9269 54.2308 45.3769 54.2308 45.8462V58.2308H41.8462C41.3769 58.2308 40.9269 58.4172 40.5951 58.749C40.2633 59.0808 40.0769 59.5308 40.0769 60C40.0769 60.4692 40.2633 60.9192 40.5951 61.251C40.9269 61.5828 41.3769 61.7692 41.8462 61.7692H54.2308V74.1538C54.2308 74.6231 54.4172 75.0731 54.749 75.4049C55.0808 75.7367 55.5308 75.9231 56 75.9231C56.4692 75.9231 56.9192 75.7367 57.251 75.4049C57.5828 75.0731 57.7692 74.6231 57.7692 74.1538V61.7692H70.1538C70.6231 61.7692 71.0731 61.5828 71.4049 61.251C71.7367 60.9192 71.9231 60.4692 71.9231 60C71.9231 59.5308 71.7367 59.0808 71.4049 58.749C71.0731 58.4172 70.6231 58.2308 70.1538 58.2308H57.7692V45.8462Z" fill="#BC9A2F"/>
<path d="M37.549 3.26997e-07C42.0073 3.26997e-07 45.6764 3.375 46.15 7.71429H52.9375C55.1325 7.71402 57.2457 8.54857 58.8501 10.0493C60.4546 11.55 61.4305 13.605 61.5808 15.7989L61.6 16.3929V35.3854C59.7074 34.9384 57.7694 34.7132 55.825 34.7143V16.3929C55.825 15.6938 55.5723 15.0184 55.1136 14.4916C54.655 13.9647 54.0215 13.6221 53.3302 13.527L52.9375 13.5H44.7293C43.9384 14.68 42.8696 15.6467 41.6173 16.3147C40.365 16.9827 38.9678 17.3314 37.549 17.3301H24.0509C22.6326 17.3319 21.2356 16.9837 19.9833 16.3164C18.7311 15.6491 17.6621 14.6831 16.8707 13.5039L8.6625 13.5C7.96473 13.5 7.29058 13.7532 6.76472 14.2127C6.23885 14.6722 5.89685 15.3069 5.80195 15.9994L5.775 16.3929V68.4836C5.775 69.9493 6.8607 71.1566 8.2698 71.3494L8.6625 71.3764H33.6297C34.7332 73.4928 36.132 75.441 37.7839 77.1621H8.6625C6.46751 77.1624 4.35427 76.3279 2.74985 74.8271C1.14543 73.3264 0.169485 71.2715 0.0192505 69.0776L6.5445e-08 68.4836V16.3929C-0.000269584 14.1938 0.832738 12.0766 2.33067 10.4692C3.82861 8.86184 5.87976 7.88409 8.0696 7.73357L8.6625 7.71429H15.45C15.6842 5.59314 16.6913 3.63311 18.2783 2.20966C19.8654 0.786205 21.9208 -0.000585578 24.0509 3.26997e-07H37.549ZM37.549 5.78571H24.0509C23.3069 5.813 22.6024 6.12831 22.0857 6.66531C21.5689 7.20231 21.2802 7.91916 21.2802 8.66507C21.2802 9.41099 21.5689 10.1278 22.0857 10.6648C22.6024 11.2018 23.3069 11.5171 24.0509 11.5444H37.549C37.9353 11.5586 38.3205 11.4946 38.6815 11.3563C39.0425 11.218 39.372 11.0082 39.6503 10.7394C39.9286 10.4706 40.1499 10.1484 40.3011 9.792C40.4523 9.4356 40.5302 9.05232 40.5302 8.66507C40.5302 8.27782 40.4523 7.89455 40.3011 7.53815C40.1499 7.18175 39.9286 6.85954 39.6503 6.59076C39.372 6.32199 39.0425 6.11218 38.6815 5.97386C38.3205 5.83554 37.9353 5.77155 37.549 5.78571ZM20.2125 46.2664H34.7462C32.1624 50.2997 30.7924 54.9931 30.8 59.7857C30.8 61.0971 30.9001 62.3816 31.0926 63.639H30.8C21.0672 63.639 15.4 60.1329 15.4 53.0087V51.0879C15.4 48.4264 17.556 46.2664 20.2125 46.2664ZM30.8 23.1236C33.3527 23.1236 35.8009 24.1395 37.6059 25.9479C39.4109 27.7563 40.425 30.209 40.425 32.7664C40.425 35.3239 39.4109 37.7766 37.6059 39.585C35.8009 41.3933 33.3527 42.4093 30.8 42.4093C28.2473 42.4093 25.7991 41.3933 23.9941 39.585C22.1891 37.7766 21.175 35.3239 21.175 32.7664C21.175 30.209 22.1891 27.7563 23.9941 25.9479C25.7991 24.1395 28.2473 23.1236 30.8 23.1236Z" fill="#333333"/>
</svg>
