<svg width="142" height="118" viewBox="0 0 142 118" fill="none" xmlns="http://www.w3.org/2000/svg">
<path d="M140.185 72.4147L132.453 63.6878L133.534 52.1206C133.742 50.0624 132.328 48.1688 130.333 47.716L118.86 45.1226L112.874 35.1197C112.362 34.2617 111.553 33.6173 110.597 33.3067C109.641 32.9962 108.603 33.0407 107.678 33.4319L96.8696 38.0835L86.1031 33.5143C84.1909 32.691 81.9462 33.4319 80.9069 35.202L74.8794 45.1638L63.4478 47.716C61.4109 48.1688 59.9975 50.0212 60.2053 52.1206L61.2861 63.6467L53.5542 72.4147C52.1824 73.9789 52.1824 76.2842 53.5542 77.8484L61.2861 86.5753L60.2053 98.1837C59.9975 100.242 61.4109 102.135 63.4062 102.588L74.8794 105.182L80.8654 115.143C81.9462 116.914 84.1493 117.654 86.1031 116.831L96.8696 112.18L107.636 116.749C109.548 117.572 111.793 116.831 112.832 115.061L118.818 105.058L130.291 102.465C132.328 102.012 133.7 100.118 133.492 98.0602L132.411 86.493L140.143 77.7661C141.557 76.2842 141.557 73.9789 140.185 72.4147ZM101.027 95.7138H92.7126V87.4809H101.027V95.7138ZM96.8696 79.248C94.5833 79.248 92.7126 77.3956 92.7126 75.1316V58.6658C92.7126 56.4017 94.5833 54.5493 96.8696 54.5493C99.1559 54.5493 101.027 56.4017 101.027 58.6658V75.1316C101.027 77.3956 99.1559 79.248 96.8696 79.248Z" fill="#BC9A2F"/>
<mask id="mask0_107_2494" style="mask-type:alpha" maskUnits="userSpaceOnUse" x="0" y="0" width="114" height="103">
<path d="M19.513 0V88.9296C19.513 91.5273 17.4302 93.6101 14.8325 93.6101C12.2348 93.6101 10.152 91.5273 10.152 88.9296V32.7635H14.8325V23.4025H0.791016V88.9296C0.791016 96.629 7.1331 102.971 14.8325 102.971H61.6376C60.7015 100.163 60.1726 96.8864 60.1726 93.6101H28.0035C28.537 92.1311 28.8787 90.5818 28.8787 88.9296V9.36101H103.767V60.8466C107.043 61.7827 110.32 63.1868 113.128 65.5271V0H19.513ZM38.2351 18.722V37.444H94.4011V18.722H38.2351ZM38.2351 46.805V56.1661H61.6376V46.805H38.2351ZM70.9986 46.805V56.1661H94.4011V46.805H70.9986ZM38.2351 60.8466V70.2076H61.6376V60.8466H38.2351ZM38.2351 74.8881V84.2491H61.6376V74.8881H38.2351Z" fill="#F24E1E"/>
</mask>
<g mask="url(#mask0_107_2494)">
<path d="M99.0853 32.7634C106.106 28.0829 110.787 25.7427 113.127 28.0829C114.999 29.9548 120.147 38.2233 122.488 42.1244L136.525 -7.02081L-8.57031 -2.34031V72.5478V98.2905C-8.57031 100.163 -0.76947 102.191 3.13095 102.971L28.8737 114.672C40.575 111.552 63.0414 105.311 59.297 105.311C55.5526 105.311 56.1767 99.0706 56.9568 95.9503V86.5893C55.3979 84.249 51.8122 79.1005 49.94 77.2283C48.0678 75.3561 50.7201 70.2075 52.2803 67.8673L56.9608 60.8465V49.1452C56.9608 47.273 58.521 45.2448 59.301 44.4647L71.0023 42.1245C72.5625 39.7842 76.1508 34.1676 78.0231 30.4232C79.8953 26.6788 83.4836 27.3029 85.0438 28.083L99.0853 32.7634Z" fill="#333333"/>
</g>
</svg>
